<?xml version="1.0" encoding="UTF-8" standalone="no"?>
<svg width="114px" height="43px" viewBox="0 0 114 43" version="1.1" xmlns="http://www.w3.org/2000/svg" xmlns:xlink="http://www.w3.org/1999/xlink">
    <!-- Generator: Sketch 45.1 (43504) - http://www.bohemiancoding.com/sketch -->
    <title>Blueplate Logo</title>
    <desc>Created with Sketch.</desc>
    <defs>
        <polygon id="path-1" points="0.526928811 0.0235316986 10.8382221 0.0235316986 10.8382221 14.8583627 0.526928811 14.8583627 0.526928811 0.0235316986"></polygon>
        <polygon id="path-3" points="0.253035607 0.0235316986 10.9127904 0.0235316986 10.9127904 15.2074162 0.253035607 15.2074162 0.253035607 0.0235316986"></polygon>
    </defs>
    <g id="Symbols" stroke="none" stroke-width="1" fill="none" fill-rule="evenodd">
        <g id="Nav_Bar" transform="translate(-20.000000, -17.000000)">
            <g id="Nav_icons">
                <g transform="translate(20.000000, 17.000000)">
                    <g id="Blueplate-Logo">
                        <path d="M8.85010892,14.7472034 C8.00671086,15.2458513 7.18949491,15.4206582 5.4781879,15.4206582 L1.16538225,15.4206582 C0.37156308,15.4206582 0,14.871025 0,14.1236134 L0,2.25579345 C0,1.5078216 0.37156308,0.95986919 1.16538225,0.95986919 L4.76012971,0.95986919 C8.1309366,0.95986919 10.1146489,2.30509796 10.1146489,5.04822168 C10.1146489,6.16989931 9.71801788,7.04337355 8.94926668,7.69105554 C10.3374754,8.36451034 11.0070688,9.46153571 11.0070688,11.0818612 C11.0070688,12.6276697 10.1881817,13.9488065 8.85010892,14.7472034 M5.03197796,3.32816657 L2.52852297,3.32816657 L2.52852297,6.8932189 L4.56125712,6.8932189 C6.69314903,6.8932189 7.43738932,6.24497663 7.43738932,5.12273872 C7.43738932,4.05148616 6.69314903,3.32816657 5.03197796,3.32816657 M4.8342195,9.03740486 L2.52852297,9.03740486 L2.52852297,13.0512403 L4.7094367,13.0512403 C7.5855689,13.0512403 8.30474122,12.4035583 8.30474122,11.057209 C8.30474122,9.6604346 7.63514778,9.03740486 4.8342195,9.03740486" id="Fill-1" fill="#FFFFFF"></path>
                        <g id="Group-5" transform="translate(33.423965, 0.536971)">
                            <mask id="mask-2" fill="white">
                                <use xlink:href="#path-1"></use>
                            </mask>
                            <g id="Clip-4"></g>
                            <path d="M9.54972822,14.8583627 L1.691754,14.8583627 C0.898491891,14.8583627 0.526928811,14.30985 0.526928811,13.5865304 L0.526928811,1.76857523 C0.526928811,0.871569293 0.526928811,0.0233075871 1.76584379,0.0233075871 C3.07996269,0.0233075871 3.05489471,0.846356758 3.05489471,1.76857523 L3.05489471,12.5141573 L9.54972822,12.5141573 C10.3435474,12.5141573 10.8382221,12.9130756 10.8382221,13.7114725 C10.8382221,14.5087489 10.3435474,14.8583627 9.54972822,14.8583627" id="Fill-3" fill="#FFFFFF" mask="url(#mask-2)"></path>
                        </g>
                        <g id="Group-8" transform="translate(68.519129, 0.536971)">
                            <mask id="mask-4" fill="white">
                                <use xlink:href="#path-3"></use>
                            </mask>
                            <g id="Clip-7"></g>
                            <path d="M5.58330627,15.2074162 C2.36067896,15.2074162 0.25329795,13.0133655 0.25329795,9.67242456 L0.25329795,1.76857523 C0.25329795,0.871569293 0.203719068,0.0233075871 1.46770202,0.0233075871 C2.78182092,0.0233075871 2.75786708,0.846917037 2.75786708,1.76857523 L2.75786708,8.99953003 C2.75786708,11.1935808 3.22803085,12.8637711 5.58330627,12.8637711 C7.93858168,12.8637711 8.40874546,11.1935808 8.40874546,8.99953003 L8.40874546,1.76857523 C8.40874546,0.871569293 8.38423455,0.0233075871 9.64877457,0.0233075871 C10.9372684,0.0233075871 10.9127575,0.871569293 10.9127575,1.76857523 L10.9127575,9.67242456 C10.9127575,13.0133655 8.80537651,15.2074162 5.58330627,15.2074162" id="Fill-6" fill="#FFFFFF" mask="url(#mask-4)"></path>
                        </g>
                        <path d="M111.777316,15.3953336 L103.919899,15.3953336 C103.101011,15.3953336 102.779027,14.846821 102.779027,14.1235014 L102.779027,2.25568139 C102.779027,1.5323618 103.101011,0.959757134 103.919899,0.959757134 L111.777316,0.959757134 C112.571135,0.959757134 113.06581,1.35867545 113.06581,2.15707237 C113.06581,2.95434873 112.571135,3.32805451 111.777316,3.32805451 L105.30755,3.32805451 L105.30755,6.54461359 L108.505667,6.54461359 C109.223725,6.54461359 109.76965,6.74407275 109.76965,7.59177418 C109.76965,8.48878012 109.199214,8.63893477 108.505667,8.63893477 L105.30755,8.63893477 L105.30755,13.0511282 L111.777316,13.0511282 C112.571135,13.0511282 113.06581,13.4500466 113.06581,14.2484435 C113.06581,15.0457198 112.571135,15.3953336 111.777316,15.3953336" id="Fill-9" fill="#FFFFFF"></path>
                        <path d="M2.52841155,37.0730145 L2.52841155,40.8128737 C2.52841155,41.71044 2.52841155,42.5575811 1.26498567,42.5575811 C0.0243994946,42.5575811 0.000445652869,41.7855173 0.000445652869,40.8128737 L0.000445652869,29.0952084 C0.000445652869,28.3466763 0.372008733,27.7987239 1.16471377,27.7987239 L4.16507172,27.7987239 C8.00715652,27.7987239 10.2382062,29.3439721 10.2382062,32.4613619 C10.2382062,35.5770708 8.03166742,37.0730145 4.16507172,37.0730145 L2.52841155,37.0730145 Z M2.52841155,30.1922338 L2.52841155,34.8537512 L4.31380836,34.8537512 C6.6440158,34.8537512 7.56150365,34.0312623 7.56150365,32.5106664 C7.56150365,31.0147227 6.61894783,30.1922338 4.31380836,30.1922338 L2.52841155,30.1922338 Z" id="Fill-11" fill="#FFFFFF"></path>
                        <path d="M34.6062266,42.2588966 L26.7476953,42.2588966 C25.9549902,42.2588966 25.5834271,41.7103839 25.5834271,40.9870643 L25.5834271,29.1696694 C25.5834271,28.2721032 25.5834271,27.4244018 26.8223421,27.4244018 C28.136461,27.4244018 28.111393,28.2468907 28.111393,29.1696694 L28.111393,39.9146912 L34.6062266,39.9146912 C35.4000457,39.9146912 35.8947204,40.3141698 35.8947204,41.1125667 C35.8947204,41.9098431 35.4000457,42.2588966 34.6062266,42.2588966" id="Fill-13" fill="#FFFFFF"></path>
                        <path d="M87.1527107,30.1915615 L83.4337375,30.1915615 L83.4337375,40.7881094 C83.4337375,41.6851154 83.4838735,42.5328168 82.2198905,42.5328168 C80.9553505,42.5328168 80.9553505,41.7854052 80.9553505,40.7881094 L80.9553505,30.1915615 L77.2369344,30.1915615 C76.4431152,30.1915615 75.9729514,29.7926431 75.9729514,28.9953668 C75.9729514,28.1969699 76.4431152,27.8232641 77.2369344,27.8232641 L87.1527107,27.8232641 C87.9465299,27.8232641 88.4172507,28.1969699 88.4172507,28.9953668 C88.4172507,29.7926431 87.9465299,30.1915615 87.1527107,30.1915615" id="Fill-15" fill="#FFFFFF"></path>
                        <path d="M111.777316,42.2588966 L103.919899,42.2588966 C103.101011,42.2588966 102.779027,41.7103839 102.779027,40.9870643 L102.779027,29.1198046 C102.779027,28.396485 103.101011,27.8233201 103.919899,27.8233201 L111.777316,27.8233201 C112.571135,27.8233201 113.06581,28.2222384 113.06581,29.0200751 C113.06581,29.818472 112.571135,30.1921778 111.777316,30.1921778 L105.30755,30.1921778 L105.30755,33.4087368 L108.505667,33.4087368 C109.223725,33.4087368 109.76965,33.608196 109.76965,34.4553371 C109.76965,35.3529034 109.199214,35.5024977 108.505667,35.5024977 L105.30755,35.5024977 L105.30755,39.9146912 L111.777316,39.9146912 C112.571135,39.9146912 113.06581,40.3141698 113.06581,41.1125667 C113.06581,41.9098431 112.571135,42.2588966 111.777316,42.2588966" id="Fill-17" fill="#FFFFFF"></path>
                        <path d="M62.0276375,42.4334234 C61.0611279,42.8575542 60.58985,42.0597176 60.3168876,41.3111855 L59.1526195,38.1450515 L53.7975432,38.1450515 L52.6332751,41.3111855 C52.3603127,42.0597176 51.8394559,42.832902 50.8974571,42.4334234 C49.8808115,41.9846403 50.1537739,41.2372287 50.4506901,40.4141795 L54.8637677,28.5962243 C55.111105,27.8981173 55.6570298,27.3742569 56.4742457,27.3742569 C57.243554,27.3742569 57.8139897,27.873465 58.061327,28.5962243 L62.4738475,40.4141795 C62.7718778,41.1873639 63.0687941,41.9846403 62.0276375,42.4334234 Z M56.4497348,30.8154876 L54.6153162,35.9011359 L58.3092214,35.9011359 L56.4497348,30.8154876 Z" id="Fill-19" fill="#FFFFFF"></path>
                        <path d="M59.244981,8.15244491 C59.244981,9.68872866 58.0066231,10.9342278 56.4791479,10.9342278 C54.9516727,10.9342278 53.7133148,9.68872866 53.7133148,8.15244491 C53.7133148,6.61616116 54.9516727,5.37066197 56.4791479,5.37066197 C58.0066231,5.37066197 59.244981,6.61616116 59.244981,8.15244491" id="Fill-21" fill="#FFFFFF"></path>
                        <path d="M93.9659075,8.15244491 C93.9659075,9.68872866 92.7275496,10.9342278 91.2000744,10.9342278 C89.6725992,10.9342278 88.4342413,9.68872866 88.4342413,8.15244491 C88.4342413,6.61616116 89.6725992,5.37066197 91.2000744,5.37066197 C92.7275496,5.37066197 93.9659075,6.61616116 93.9659075,8.15244491" id="Fill-23" fill="#FFFFFF"></path>
                        <path d="M24.499098,8.15244491 C24.499098,9.68872866 23.2607401,10.9342278 21.7332649,10.9342278 C20.2063467,10.9342278 18.9679888,9.68872866 18.9679888,8.15244491 C18.9679888,6.61616116 20.2063467,5.37178253 21.7332649,5.37178253 C23.2607401,5.37178253 24.499098,6.61616116 24.499098,8.15244491" id="Fill-25" fill="#FFFFFF"></path>
                    </g>
                </g>
            </g>
        </g>
    </g>
</svg>